<svg width="93" height="30" viewBox="0 0 93 30" fill="none" xmlns="http://www.w3.org/2000/svg">
<g clip-path="url(#clip0_9_137)">
<path d="M12.1406 0.0032959H12.9579C15.7955 0.0649816 18.5867 1.20617 20.5915 3.22637C19.8513 3.98202 19.0957 4.70683 18.3708 5.46248C17.2451 4.44467 15.888 3.65817 14.4075 3.38059C12.2177 2.91794 9.85821 3.33432 8.02306 4.58346C6.01827 5.89428 4.66119 8.11496 4.36818 10.4899C4.04433 12.8339 4.70745 15.3013 6.23417 17.1211C7.69921 18.8945 9.93532 20.0049 12.2485 20.082C14.4075 20.2054 16.6591 19.5422 18.2321 18.0309C19.4658 16.9669 20.0364 15.3476 20.2214 13.7746C17.6615 13.7746 15.1015 13.79 12.5415 13.7746V10.5978H23.3211C23.8763 14.0059 23.0744 17.8459 20.4836 20.2825C18.7564 22.0097 16.3661 23.0275 13.9295 23.228C11.57 23.4593 9.13341 23.0121 7.03609 21.8709C4.5224 20.5292 2.51761 18.2623 1.53064 15.5944C0.605349 13.1423 0.589928 10.3665 1.45353 7.89906C2.24002 5.64754 3.75132 3.65817 5.69442 2.27025C7.56042 0.897738 9.82737 0.142089 12.1406 0.0032959Z" fill="#A3A5AA"/>
<path d="M73.9807 0.804565H77.2808V22.8264C76.1859 22.8264 75.0756 22.8418 73.9807 22.811C73.9961 15.4858 73.9807 8.14517 73.9807 0.804565Z" fill="#A3A5AA"/>
<path d="M30.6618 8.43819C32.6975 8.05266 34.9027 8.48446 36.5837 9.70275C38.1104 10.7822 39.1745 12.4786 39.4983 14.3292C39.9147 16.4727 39.3904 18.8168 38.0025 20.5132C36.5066 22.41 34.0546 23.4278 31.6642 23.2736C29.4744 23.1502 27.3462 22.0553 26.0508 20.2664C24.5858 18.2925 24.2311 15.5783 25.033 13.2651C25.8349 10.7822 28.1019 8.88541 30.6618 8.43819ZM31.1245 11.3683C30.2917 11.5842 29.5207 12.0622 28.9655 12.7408C27.4696 14.5297 27.5621 17.4443 29.2122 19.1098C30.1529 20.0659 31.5717 20.5132 32.8825 20.251C34.1008 20.0351 35.1649 19.2178 35.7509 18.1383C36.7687 16.3031 36.4757 13.774 34.9182 12.3398C33.9158 11.4145 32.4507 11.029 31.1245 11.3683Z" fill="#A3A5AA"/>
<path d="M47.0086 8.43823C49.3372 7.99101 51.8817 8.63871 53.6243 10.2734C56.4619 12.8179 56.7703 17.5831 54.3491 20.5132C52.8841 22.3638 50.5092 23.3816 48.1652 23.2736C45.9291 23.212 43.7238 22.1016 42.3975 20.2665C40.9017 18.2463 40.5778 15.4704 41.426 13.1109C42.2742 10.7052 44.4949 8.87003 47.0086 8.43823ZM47.4712 11.3683C46.6384 11.5842 45.8674 12.0623 45.3122 12.7254C43.8317 14.4834 43.8934 17.3518 45.4818 19.0328C46.4225 20.0351 47.8876 20.5286 49.2447 20.251C50.4475 20.0197 51.527 19.2178 52.113 18.1383C53.1154 16.2877 52.8224 13.7586 51.2494 12.3244C50.2471 11.3991 48.782 11.029 47.4712 11.3683Z" fill="#A3A5AA"/>
<path d="M60.8724 9.33266C62.6459 8.22232 65.0054 7.91389 66.9176 8.87002C67.519 9.13218 68.0125 9.57941 68.4906 10.0266C68.506 9.61025 68.4906 9.17845 68.506 8.74665C69.5393 8.76207 70.5725 8.74665 71.6212 8.76207V22.3638C71.6057 24.4148 71.0814 26.5893 69.6009 28.0851C67.9817 29.7352 65.4988 30.2441 63.2627 29.9049C60.8724 29.5502 58.7905 27.8075 57.8652 25.6023C58.7905 25.1551 59.7621 24.8004 60.7182 24.384C61.2579 25.6485 62.3529 26.728 63.7254 26.9748C65.0979 27.2215 66.6863 26.8823 67.5807 25.7411C68.5369 24.569 68.5369 22.9652 68.4906 21.531C67.7812 22.225 66.9639 22.8418 65.9769 23.0732C63.8333 23.6746 61.4738 22.9344 59.8238 21.4848C58.1582 20.0351 57.1713 17.799 57.2638 15.5783C57.3101 13.0647 58.7288 10.6435 60.8724 9.33266ZM64.0646 11.3066C63.1239 11.4608 62.2449 11.9851 61.6435 12.71C60.1939 14.4372 60.1939 17.1976 61.6589 18.894C62.4917 19.8963 63.8333 20.4515 65.1287 20.3127C66.347 20.1894 67.4728 19.4183 68.0742 18.3542C69.092 16.5499 68.9224 14.0979 67.5499 12.5249C66.7017 11.5533 65.3446 11.0753 64.0646 11.3066Z" fill="#A3A5AA"/>
<path d="M81.2442 10.1191C83.0947 8.39194 85.9477 7.80592 88.3226 8.71579C90.5742 9.56397 92.0084 11.7076 92.7332 13.9128C89.3867 15.3007 86.0557 16.6733 82.7092 18.0612C83.1718 18.9402 83.8812 19.7421 84.8374 20.066C86.179 20.544 87.7829 20.3744 88.9086 19.48C89.3559 19.1407 89.7106 18.6935 90.0498 18.2617C90.898 18.8323 91.7462 19.3874 92.5944 19.958C91.3915 21.7623 89.3713 23.0269 87.1969 23.2274C84.7911 23.5204 82.2311 22.5951 80.6736 20.7137C78.1136 17.7528 78.3603 12.7871 81.2442 10.1191ZM82.8943 12.9721C82.3699 13.7278 82.154 14.653 82.1694 15.5629C84.4056 14.6376 86.6417 13.7123 88.8778 12.7716C88.5077 11.908 87.6132 11.3837 86.7034 11.2449C85.2383 10.9827 83.7116 11.7692 82.8943 12.9721Z" fill="#A3A5AA"/>
</g>
<defs>
<clipPath id="clip0_9_137">
<rect width="91.9118" height="30" fill="white" transform="translate(0.82135)"/>
</clipPath>
</defs>
</svg>
